<svg xmlns="http://www.w3.org/2000/svg" width="32" height="32" fill="none" viewBox="0 0 32 32"><path fill="#fff" fill-opacity=".8" d="M12.7071 20.2929C12.3166 19.9024 11.6834 19.9024 11.2929 20.2929C10.9024 20.6834 10.9024 21.3166 11.2929 21.7071L12.7071 20.2929ZM16 25L15.2929 25.7071C15.6834 26.0976 16.3166 26.0976 16.7071 25.7071L16 25ZM20.7071 21.7071C21.0976 21.3166 21.0976 20.6834 20.7071 20.2929C20.3166 19.9024 19.6834 19.9024 19.2929 20.2929L20.7071 21.7071ZM17 16C17 15.4477 16.5523 15 16 15C15.4477 15 15 15.4477 15 16H17ZM19.9661 10.6977L20.8277 10.19L20.8277 10.19L19.9661 10.6977ZM23.3632 19.9718C22.9374 20.3235 22.8773 20.9538 23.229 21.3796C23.5806 21.8055 24.2109 21.8656 24.6368 21.5139L23.3632 19.9718ZM7.47855 20.4993C7.86836 20.8906 8.50152 20.8917 8.89276 20.5019C9.284 20.1121 9.28516 19.479 8.89535 19.0877L7.47855 20.4993ZM11.2929 21.7071L15.2929 25.7071L16.7071 24.2929L12.7071 20.2929L11.2929 21.7071ZM16.7071 25.7071L20.7071 21.7071L19.2929 20.2929L15.2929 24.2929L16.7071 25.7071ZM15 16V25H17V16H15ZM7 14.5C7 10.9101 9.91015 8 13.5 8V6C8.80558 6 5 9.80558 5 14.5H7ZM13.5 8C15.8859 8 17.9729 9.28498 19.1046 11.2054L20.8277 10.19C19.3513 7.6847 16.6229 6 13.5 6V8ZM20.5 12C22.9853 12 25 14.0147 25 16.5H27C27 12.9101 24.0898 10 20.5 10V12ZM25 16.5C25 17.897 24.3646 19.1448 23.3632 19.9718L24.6368 21.5139C26.0784 20.3233 27 18.5188 27 16.5H25ZM8.89535 19.0877C7.72297 17.911 7 16.2909 7 14.5H5C5 16.8413 5.94793 18.9631 7.47855 20.4993L8.89535 19.0877ZM19.1046 11.2054C19.3998 11.7063 19.9363 12 20.5 12V10C20.6267 10 20.7544 10.0657 20.8277 10.19L19.1046 11.2054Z"/></svg>